<svg xmlns="http://www.w3.org/2000/svg" width="500" zoomAndPan="magnify" viewBox="0 0 375 374.999991" height="500"
     preserveAspectRatio="xMidYMid meet" version="1.0"><defs><g/><clipPath id="7a45861165"><rect x="0" width="173" y="0" height="37"/></clipPath><clipPath id="f6a198ea0f"><path d="M 124.515625 83.441406 L 247.515625 83.441406 L 247.515625 233.441406 L 124.515625 233.441406 Z M 124.515625 83.441406 " clip-rule="nonzero"/></clipPath></defs><rect x="-37.5" width="450" fill="#ffffff" y="-37.499999" height="449.999989" fill-opacity="1"/><rect x="-37.5" width="450" fill="#0d1117" y="-37.499999" height="449.999989" fill-opacity="1"/><g transform="matrix(1, 0, 0, 1, 101, 252)"><g clip-path="url(#7a45861165)"><g fill="#ffffff" fill-opacity="1"><g transform="translate(0.784037, 26.865203)"><g><path d="M 13.859375 0.5 C 12.117188 0.5 10.488281 0.191406 8.96875 -0.421875 C 7.445312 -1.046875 6.109375 -1.9375 4.953125 -3.09375 C 3.804688 -4.257812 2.90625 -5.644531 2.25 -7.25 C 1.59375 -8.863281 1.265625 -10.65625 1.265625 -12.625 C 1.265625 -14.582031 1.59375 -16.363281 2.25 -17.96875 C 2.90625 -19.582031 3.804688 -20.96875 4.953125 -22.125 C 6.109375 -23.289062 7.445312 -24.179688 8.96875 -24.796875 C 10.488281 -25.421875 12.117188 -25.734375 13.859375 -25.734375 C 15.585938 -25.734375 17.210938 -25.421875 18.734375 -24.796875 C 20.253906 -24.179688 21.59375 -23.289062 22.75 -22.125 C 23.914062 -20.96875 24.828125 -19.582031 25.484375 -17.96875 C 26.140625 -16.363281 26.46875 -14.582031 26.46875 -12.625 C 26.46875 -10.65625 26.140625 -8.863281 25.484375 -7.25 C 24.828125 -5.644531 23.914062 -4.257812 22.75 -3.09375 C 21.59375 -1.9375 20.253906 -1.046875 18.734375 -0.421875 C 17.210938 0.191406 15.585938 0.5 13.859375 0.5 Z M 3.28125 -12.625 C 3.28125 -10.738281 3.550781 -9.019531 4.09375 -7.46875 C 4.644531 -5.914062 5.40625 -4.582031 6.375 -3.46875 C 7.351562 -2.351562 8.476562 -1.492188 9.75 -0.890625 C 11.019531 -0.296875 12.390625 0 13.859375 0 C 15.316406 0 16.6875 -0.296875 17.96875 -0.890625 C 19.25 -1.492188 20.367188 -2.351562 21.328125 -3.46875 C 22.296875 -4.582031 23.054688 -5.914062 23.609375 -7.46875 C 24.171875 -9.019531 24.453125 -10.738281 24.453125 -12.625 C 24.453125 -14.519531 24.171875 -16.238281 23.609375 -17.78125 C 23.054688 -19.320312 22.296875 -20.648438 21.328125 -21.765625 C 20.367188 -22.878906 19.25 -23.734375 17.96875 -24.328125 C 16.6875 -24.929688 15.316406 -25.234375 13.859375 -25.234375 C 12.390625 -25.234375 11.019531 -24.929688 9.75 -24.328125 C 8.476562 -23.734375 7.351562 -22.878906 6.375 -21.765625 C 5.40625 -20.648438 4.644531 -19.320312 4.09375 -17.78125 C 3.550781 -16.238281 3.28125 -14.519531 3.28125 -12.625 Z M 3.28125 -12.625 "/></g></g></g><g fill="#ffffff" fill-opacity="1"><g transform="translate(28.511478, 26.865203)"><g><path d="M 2.015625 0 L 2.015625 -25.234375 L 13.625 -25.234375 C 14.90625 -25.234375 16.003906 -25.066406 16.921875 -24.734375 C 17.835938 -24.410156 18.585938 -23.976562 19.171875 -23.4375 C 19.765625 -22.90625 20.234375 -22.3125 20.578125 -21.65625 C 20.921875 -21.007812 21.160156 -20.367188 21.296875 -19.734375 C 21.429688 -19.109375 21.5 -18.546875 21.5 -18.046875 C 21.5 -17.535156 21.429688 -16.960938 21.296875 -16.328125 C 21.160156 -15.703125 20.921875 -15.070312 20.578125 -14.4375 C 20.234375 -13.8125 19.765625 -13.226562 19.171875 -12.6875 C 18.585938 -12.15625 17.835938 -11.71875 16.921875 -11.375 C 16.015625 -11.039062 14.914062 -10.863281 13.625 -10.84375 L 12.890625 -10.84375 C 12.523438 -10.84375 12.359375 -10.785156 12.390625 -10.671875 C 12.421875 -10.554688 12.585938 -10.378906 12.890625 -10.140625 C 13.597656 -9.585938 14.316406 -8.847656 15.046875 -7.921875 C 15.785156 -6.992188 16.613281 -5.910156 17.53125 -4.671875 C 18.050781 -3.984375 18.601562 -3.328125 19.1875 -2.703125 C 19.769531 -2.078125 20.328125 -1.53125 20.859375 -1.0625 C 21.390625 -0.601562 21.835938 -0.25 22.203125 0 L 19.359375 0 C 18.765625 -0.351562 18.15625 -0.863281 17.53125 -1.53125 C 16.914062 -2.195312 16.296875 -2.941406 15.671875 -3.765625 C 15.046875 -4.585938 14.425781 -5.410156 13.8125 -6.234375 C 13.195312 -7.054688 12.59375 -7.816406 12 -8.515625 C 11.414062 -9.210938 10.847656 -9.773438 10.296875 -10.203125 C 9.742188 -10.628906 9.210938 -10.84375 8.703125 -10.84375 L 6.453125 -10.84375 L 6.453125 -11.359375 L 11.40625 -11.359375 C 13.925781 -11.359375 15.835938 -11.957031 17.140625 -13.15625 C 18.453125 -14.363281 19.109375 -15.992188 19.109375 -18.046875 C 19.109375 -20.097656 18.453125 -21.722656 17.140625 -22.921875 C 15.835938 -24.128906 13.925781 -24.734375 11.40625 -24.734375 L 5.34375 -24.734375 C 4.894531 -24.734375 4.5625 -24.640625 4.34375 -24.453125 C 4.125 -24.265625 4.015625 -23.828125 4.015625 -23.140625 C 4.015625 -23.035156 4.015625 -22.632812 4.015625 -21.9375 C 4.015625 -21.238281 4.015625 -20.328125 4.015625 -19.203125 C 4.015625 -18.085938 4.015625 -16.847656 4.015625 -15.484375 C 4.015625 -14.128906 4.015625 -12.734375 4.015625 -11.296875 C 4.023438 -9.859375 4.03125 -8.460938 4.03125 -7.109375 C 4.03125 -5.765625 4.03125 -4.554688 4.03125 -3.484375 C 4.03125 -2.421875 4.03125 -1.570312 4.03125 -0.9375 C 4.03125 -0.3125 4.03125 0 4.03125 0 Z M 2.015625 0 "/></g></g></g><g fill="#ffffff" fill-opacity="1"><g transform="translate(51.218207, 26.865203)"><g><path d="M 1.265625 -12.625 C 1.265625 -14.582031 1.59375 -16.363281 2.25 -17.96875 C 2.90625 -19.582031 3.804688 -20.96875 4.953125 -22.125 C 6.109375 -23.289062 7.445312 -24.179688 8.96875 -24.796875 C 10.488281 -25.421875 12.117188 -25.734375 13.859375 -25.734375 C 14.992188 -25.734375 16.125 -25.628906 17.25 -25.421875 C 18.382812 -25.210938 19.410156 -24.898438 20.328125 -24.484375 C 21.242188 -24.078125 21.976562 -23.566406 22.53125 -22.953125 C 23.082031 -22.335938 23.359375 -21.625 23.359375 -20.8125 C 23.359375 -20.34375 23.257812 -20.007812 23.0625 -19.8125 C 22.875 -19.625 22.6875 -19.515625 22.5 -19.484375 C 22.320312 -19.453125 22.234375 -19.4375 22.234375 -19.4375 C 22.128906 -20.132812 21.84375 -20.828125 21.375 -21.515625 C 20.90625 -22.210938 20.285156 -22.835938 19.515625 -23.390625 C 18.753906 -23.941406 17.890625 -24.382812 16.921875 -24.71875 C 15.953125 -25.0625 14.929688 -25.234375 13.859375 -25.234375 C 12.390625 -25.234375 11.019531 -24.929688 9.75 -24.328125 C 8.476562 -23.734375 7.351562 -22.878906 6.375 -21.765625 C 5.40625 -20.648438 4.644531 -19.320312 4.09375 -17.78125 C 3.550781 -16.238281 3.28125 -14.519531 3.28125 -12.625 C 3.28125 -10.738281 3.550781 -9.019531 4.09375 -7.46875 C 4.644531 -5.914062 5.40625 -4.582031 6.375 -3.46875 C 7.351562 -2.351562 8.476562 -1.492188 9.75 -0.890625 C 11.019531 -0.296875 12.390625 0 13.859375 0 C 14.546875 0 15.316406 -0.113281 16.171875 -0.34375 C 17.035156 -0.582031 17.859375 -0.925781 18.640625 -1.375 C 19.429688 -1.832031 20.082031 -2.390625 20.59375 -3.046875 C 21.113281 -3.703125 21.375 -4.445312 21.375 -5.28125 L 21.375 -13.671875 L 23.546875 -13.671875 L 23.546875 -2.703125 C 23.140625 -2.078125 22.441406 -1.523438 21.453125 -1.046875 C 20.472656 -0.566406 19.320312 -0.191406 18 0.078125 C 16.6875 0.359375 15.304688 0.5 13.859375 0.5 C 12.117188 0.5 10.488281 0.191406 8.96875 -0.421875 C 7.445312 -1.046875 6.109375 -1.9375 4.953125 -3.09375 C 3.804688 -4.257812 2.90625 -5.644531 2.25 -7.25 C 1.59375 -8.863281 1.265625 -10.65625 1.265625 -12.625 Z M 1.265625 -12.625 "/></g></g></g><g fill="#ffffff" fill-opacity="1"><g transform="translate(76.57406, 26.865203)"><g><path d="M 2.71875 0 L 0.5 0 L 9.109375 -24.046875 L 8.578125 -25.234375 L 10.796875 -25.234375 L 22.0625 0 L 19.828125 0 L 17.984375 -4.109375 C 17.679688 -4.796875 17.234375 -5.414062 16.640625 -5.96875 C 16.054688 -6.53125 15.394531 -7.003906 14.65625 -7.390625 C 13.914062 -7.773438 13.148438 -8.066406 12.359375 -8.265625 C 11.566406 -8.472656 10.820312 -8.578125 10.125 -8.578125 C 9.3125 -8.578125 8.515625 -8.453125 7.734375 -8.203125 C 6.953125 -7.953125 6.191406 -7.554688 5.453125 -7.015625 C 5.179688 -6.816406 4.910156 -6.484375 4.640625 -6.015625 C 4.367188 -5.554688 4.175781 -5.125 4.0625 -4.71875 Z M 5.46875 -9.5625 C 5.351562 -9.101562 5.398438 -8.875 5.609375 -8.875 C 5.703125 -8.875 5.882812 -8.941406 6.15625 -9.078125 C 6.664062 -9.367188 7.1875 -9.578125 7.71875 -9.703125 C 8.257812 -9.828125 8.804688 -9.890625 9.359375 -9.890625 C 10.554688 -9.890625 11.734375 -9.632812 12.890625 -9.125 C 14.054688 -8.625 15.117188 -7.976562 16.078125 -7.1875 C 16.359375 -6.957031 16.535156 -6.867188 16.609375 -6.921875 C 16.691406 -6.984375 16.65625 -7.179688 16.5 -7.515625 L 10 -22.109375 C 9.84375 -22.460938 9.679688 -22.640625 9.515625 -22.640625 C 9.347656 -22.640625 9.195312 -22.4375 9.0625 -22.03125 Z M 5.46875 -9.5625 "/></g></g></g><g fill="#ffffff" fill-opacity="1"><g transform="translate(98.700511, 26.865203)"><g><path d="M 2.015625 0 L 2.015625 -25.234375 L 4.09375 -25.234375 C 6.644531 -21.597656 9.242188 -17.910156 11.890625 -14.171875 C 14.546875 -10.441406 17.3125 -6.539062 20.1875 -2.46875 C 20.375 -2.21875 20.535156 -2.09375 20.671875 -2.09375 C 20.867188 -2.09375 20.953125 -2.3125 20.921875 -2.75 L 19.40625 -25.234375 L 21.53125 -25.234375 L 21.53125 0 L 19.5 0 C 18.175781 -1.882812 16.878906 -3.71875 15.609375 -5.5 C 14.335938 -7.28125 13.0625 -9.070312 11.78125 -10.875 C 10.5 -12.675781 9.164062 -14.550781 7.78125 -16.5 C 6.394531 -18.457031 4.921875 -20.546875 3.359375 -22.765625 C 3.191406 -23.015625 3.03125 -23.140625 2.875 -23.140625 C 2.675781 -23.140625 2.59375 -22.921875 2.625 -22.484375 L 4.140625 0 Z M 2.015625 0 "/></g></g></g><g fill="#ffffff" fill-opacity="1"><g transform="translate(122.239821, 26.865203)"><g><path d="M 2.015625 0 L 2.015625 -25.234375 L 4.03125 -25.234375 L 4.03125 0 Z M 2.015625 0 "/></g></g></g><g fill="#ffffff" fill-opacity="1"><g transform="translate(128.294942, 26.865203)"><g><path d="M 20.515625 0 L 0.5 0 L 17.140625 -23.671875 C 17.359375 -23.992188 17.421875 -24.242188 17.328125 -24.421875 C 17.234375 -24.609375 16.992188 -24.691406 16.609375 -24.671875 C 15.222656 -24.640625 13.710938 -24.566406 12.078125 -24.453125 C 10.453125 -24.347656 8.789062 -24.195312 7.09375 -24 C 5.40625 -23.8125 3.78125 -23.550781 2.21875 -23.21875 L 2.21875 -25.234375 L 20.6875 -25.234375 L 4.0625 -1.546875 C 3.84375 -1.222656 3.78125 -0.96875 3.875 -0.78125 C 3.976562 -0.59375 4.21875 -0.507812 4.59375 -0.53125 C 5.738281 -0.5625 6.976562 -0.609375 8.3125 -0.671875 C 9.65625 -0.742188 11.035156 -0.832031 12.453125 -0.9375 C 13.867188 -1.050781 15.265625 -1.195312 16.640625 -1.375 C 18.023438 -1.550781 19.316406 -1.765625 20.515625 -2.015625 Z M 20.515625 0 "/></g></g></g><g fill="#ffffff" fill-opacity="1"><g transform="translate(149.487902, 26.865203)"><g><path d="M 2.015625 0 L 2.015625 -25.234375 L 13.625 -25.234375 C 14.90625 -25.234375 16.003906 -25.066406 16.921875 -24.734375 C 17.835938 -24.410156 18.585938 -23.976562 19.171875 -23.4375 C 19.765625 -22.90625 20.234375 -22.3125 20.578125 -21.65625 C 20.921875 -21.007812 21.160156 -20.367188 21.296875 -19.734375 C 21.429688 -19.109375 21.5 -18.546875 21.5 -18.046875 C 21.5 -17.535156 21.429688 -16.960938 21.296875 -16.328125 C 21.160156 -15.703125 20.921875 -15.070312 20.578125 -14.4375 C 20.234375 -13.8125 19.765625 -13.226562 19.171875 -12.6875 C 18.585938 -12.15625 17.835938 -11.71875 16.921875 -11.375 C 16.015625 -11.039062 14.914062 -10.863281 13.625 -10.84375 L 12.890625 -10.84375 C 12.523438 -10.84375 12.359375 -10.785156 12.390625 -10.671875 C 12.421875 -10.554688 12.585938 -10.378906 12.890625 -10.140625 C 13.597656 -9.585938 14.316406 -8.847656 15.046875 -7.921875 C 15.785156 -6.992188 16.613281 -5.910156 17.53125 -4.671875 C 18.050781 -3.984375 18.601562 -3.328125 19.1875 -2.703125 C 19.769531 -2.078125 20.328125 -1.53125 20.859375 -1.0625 C 21.390625 -0.601562 21.835938 -0.25 22.203125 0 L 19.359375 0 C 18.765625 -0.351562 18.15625 -0.863281 17.53125 -1.53125 C 16.914062 -2.195312 16.296875 -2.941406 15.671875 -3.765625 C 15.046875 -4.585938 14.425781 -5.410156 13.8125 -6.234375 C 13.195312 -7.054688 12.59375 -7.816406 12 -8.515625 C 11.414062 -9.210938 10.847656 -9.773438 10.296875 -10.203125 C 9.742188 -10.628906 9.210938 -10.84375 8.703125 -10.84375 L 6.453125 -10.84375 L 6.453125 -11.359375 L 11.40625 -11.359375 C 13.925781 -11.359375 15.835938 -11.957031 17.140625 -13.15625 C 18.453125 -14.363281 19.109375 -15.992188 19.109375 -18.046875 C 19.109375 -20.097656 18.453125 -21.722656 17.140625 -22.921875 C 15.835938 -24.128906 13.925781 -24.734375 11.40625 -24.734375 L 5.34375 -24.734375 C 4.894531 -24.734375 4.5625 -24.640625 4.34375 -24.453125 C 4.125 -24.265625 4.015625 -23.828125 4.015625 -23.140625 C 4.015625 -23.035156 4.015625 -22.632812 4.015625 -21.9375 C 4.015625 -21.238281 4.015625 -20.328125 4.015625 -19.203125 C 4.015625 -18.085938 4.015625 -16.847656 4.015625 -15.484375 C 4.015625 -14.128906 4.015625 -12.734375 4.015625 -11.296875 C 4.023438 -9.859375 4.03125 -8.460938 4.03125 -7.109375 C 4.03125 -5.765625 4.03125 -4.554688 4.03125 -3.484375 C 4.03125 -2.421875 4.03125 -1.570312 4.03125 -0.9375 C 4.03125 -0.3125 4.03125 0 4.03125 0 Z M 2.015625 0 "/></g></g></g></g></g><g clip-path="url(#f6a198ea0f)"><path fill="#ffffff" d="M 224.335938 138.601562 L 185.828125 83.464844 L 124.519531 171.253906 L 151.234375 198.347656 C 151.539062 198.675781 151.84375 198.984375 152.148438 199.277344 L 185.828125 233.429688 L 247.136719 171.253906 L 224.425781 138.734375 L 224.453125 138.710938 C 224.414062 138.671875 224.371094 138.636719 224.335938 138.601562 Z M 218.882812 135.199219 C 216.644531 134.355469 214.152344 133.941406 211.472656 133.996094 C 203.917969 134.148438 191.402344 138.054688 174.40625 155.582031 C 172.8125 153.976562 169.390625 150.910156 164.613281 148.777344 C 159.40625 146.453125 151.734375 144.929688 142.964844 149.246094 L 185.828125 87.867188 Z M 139.589844 154.378906 C 147.414062 148.695312 155.441406 147.613281 163.449219 151.152344 C 167.902344 153.121094 171.136719 156.046875 172.5625 157.488281 C 163.230469 166.953125 152.785156 171.960938 141.5 172.378906 C 135.210938 172.613281 130.347656 171.277344 128.113281 170.507812 L 139.480469 154.230469 Z M 152.882812 196.238281 L 152.785156 196.328125 L 148.988281 192.480469 C 150.132812 192.695312 151.46875 192.84375 152.984375 192.84375 C 158.003906 192.84375 166.144531 191.179688 176.417969 183.246094 C 184.191406 177.242188 203.738281 163.769531 217.296875 168.320312 C 223.367188 170.359375 227.671875 175.886719 230.082031 184.75 L 230.371094 184.671875 L 216.339844 198.898438 C 216.496094 194.441406 215.261719 191.160156 212.628906 189.125 C 205.960938 183.964844 192.371094 188.507812 182.148438 193.226562 C 162.902344 202.109375 157.75 201.738281 152.882812 196.238281 Z M 159.074219 202.707031 C 159.675781 202.785156 160.296875 202.828125 160.941406 202.828125 C 161.402344 202.828125 161.875 202.808594 162.359375 202.773438 C 166.941406 202.410156 173.191406 200.269531 183.253906 195.625 C 196.769531 189.386719 206.628906 187.820312 211.011719 191.210938 C 213.453125 193.101562 214.242188 196.699219 213.371094 201.90625 L 185.828125 229.835938 Z M 243.871094 170.980469 L 232.257812 182.757812 C 229.527344 173.746094 224.785156 168.046875 218.136719 165.816406 C 203.90625 161.039062 184.878906 173.375 174.804688 181.15625 C 165.230469 188.550781 157.765625 190.15625 153.195312 190.203125 C 148.296875 190.25 145.585938 188.566406 145.558594 188.546875 L 145.382812 188.824219 L 130.78125 174.019531 C 133.183594 174.570312 136.328125 175.050781 140.019531 175.050781 C 140.488281 175.050781 140.96875 175.042969 141.457031 175.027344 C 149.984375 174.738281 162.785156 171.625 175.34375 158.417969 C 182.433594 150.964844 189.332031 145.316406 195.851562 141.628906 C 201.527344 138.414062 206.800781 136.738281 211.523438 136.640625 C 216 136.550781 219.839844 137.921875 222.609375 140.609375 L 222.636719 140.582031 Z M 243.871094 170.980469 " fill-opacity="1" fill-rule="nonzero"/></g></svg>